<?xml version="1.0" encoding="UTF-8" standalone="no"?>
<!-- Created with Inkscape (http://www.inkscape.org/) -->

<svg
   width="13494.479"
   height="13297.588"
   viewBox="0 0 1278.001 1259.3544"
   version="1.1"
   id="svg1"
   xml:space="preserve"
   xmlns:xlink="http://www.w3.org/1999/xlink"
   xmlns="http://www.w3.org/2000/svg"
   xmlns:svg="http://www.w3.org/2000/svg"><defs
     id="defs1"><linearGradient
       id="linearGradient8"><stop
         style="stop-color:#000000;stop-opacity:1;"
         offset="0"
         id="stop8" /><stop
         style="stop-color:#000000;stop-opacity:0;"
         offset="1"
         id="stop9" /></linearGradient><linearGradient
       id="linearGradient4"><stop
         style="stop-color:#ff160e;stop-opacity:0.96917808;"
         offset="0"
         id="stop4" /><stop
         style="stop-color:#00f8c9;stop-opacity:0.80821919;"
         offset="1"
         id="stop5" /></linearGradient><linearGradient
       xlink:href="#linearGradient4"
       id="linearGradient5"
       x1="-103.34215"
       y1="12.194182"
       x2="491.42627"
       y2="384.81644"
       gradientUnits="userSpaceOnUse" /><filter
       style="color-interpolation-filters:sRGB"
       id="filter5"
       x="-0.74936599"
       y="-0.97076962"
       width="2.498732"
       height="2.9415392"><feGaussianBlur
         stdDeviation="177.97442"
         id="feGaussianBlur5" /></filter><filter
       style="color-interpolation-filters:sRGB"
       id="filter7"
       x="-0.058783117"
       y="-0.066536206"
       width="1.1175662"
       height="1.1330724"><feGaussianBlur
         stdDeviation="12.720307"
         id="feGaussianBlur7" /></filter><linearGradient
       xlink:href="#linearGradient8"
       id="linearGradient9"
       x1="-188.9155"
       y1="150.16061"
       x2="378.9155"
       y2="199.83939"
       gradientUnits="userSpaceOnUse" /><filter
       style="color-interpolation-filters:sRGB"
       id="filter9"
       x="-5.9802629e-05"
       y="-7.7471591e-05"
       width="1.0001196"
       height="1.0001549"><feGaussianBlur
         stdDeviation="0.014203125"
         id="feGaussianBlur9" /></filter><filter
       style="color-interpolation-filters:sRGB"
       id="filter10"
       x="-0.054130878"
       y="-0.070124095"
       width="1.1082618"
       height="1.1402482"><feGaussianBlur
         stdDeviation="10.1"
         id="feGaussianBlur10" /></filter><filter
       style="color-interpolation-filters:sRGB"
       id="filter11"
       x="-0.049866019"
       y="-0.064599164"
       width="1.099732"
       height="1.1291983"><feGaussianBlur
         stdDeviation="11.84318"
         id="feGaussianBlur11" /></filter><linearGradient
       xlink:href="#linearGradient4"
       id="linearGradient11"
       gradientUnits="userSpaceOnUse"
       x1="-105.94771"
       y1="10.474511"
       x2="491.42627"
       y2="384.81644" /></defs><g
     id="g1"
     transform="translate(424.94184,434.0802)"><path
       d="M 380.00001,-44.999999 130,120 V -44.999999 H 60.000001 V 120 L -190,-44.999999 V 394.99999 h 70 l 180.000001,-139 v 139 H 130 v -185 L 310.00001,89.999997 V 394.99999 h 70 z M -120,89.999997 20,189.99999 l -140,110 z"
       style="display:inline;opacity:1;mix-blend-mode:normal;fill:url(#linearGradient11);stroke-width:0.266421;filter:url(#filter11)"
       id="path1"
       transform="matrix(1.6004021,-0.2717534,0.25789393,1.6864091,37.86182,-70.074837)" /><path
       d="M 380.00001,-44.999999 130,120 V -44.999999 H 60.000001 V 120 L -190,-44.999999 V 394.99999 h 70 l 180.000001,-139 v 139 H 130 v -185 L 310.00001,89.999997 V 394.99999 h 70 z M -120,89.999997 20,189.99999 l -140,110 z"
       style="display:inline;opacity:0.9975;mix-blend-mode:saturation;fill:url(#linearGradient5);stroke-width:0.266421;filter:url(#filter5)"
       id="path10"
       transform="matrix(1.6004021,-0.2717534,0.25789393,1.6864091,37.86182,-70.074837)" /><rect
       style="display:inline;opacity:0.4975;fill:none;fill-opacity:1;stroke:#000000;stroke-width:26.9203;stroke-linecap:round;stroke-linejoin:round;stroke-dasharray:none;stroke-opacity:0.94837;filter:url(#filter7)"
       id="rect7"
       width="748.3252"
       height="661.12708"
       x="51.177517"
       y="43.988792"
       ry="130.05782"
       transform="matrix(1.5091104,0,0,1.5035575,-418.26537,-369.98829)" /><rect
       style="display:inline;opacity:0.3375;fill:#828282;fill-opacity:0.875;stroke:none;stroke-width:19.9276;stroke-linecap:round;stroke-linejoin:round;stroke-dasharray:none;stroke-opacity:1"
       id="rect6"
       width="1166.5038"
       height="1032.4501"
       x="-358.95691"
       y="-323.05243"
       ry="203.10495" /><g
       id="layer2"
       transform="matrix(1.5091104,0,0,1.5035575,82.274187,-83.460597)"
       style="display:inline;opacity:1;fill:url(#linearGradient9)"><path
         d="M 380.00001,-44.999999 130,120 V -44.999999 H 60.000001 V 120 L -190,-44.999999 V 394.99999 h 70 l 180.000001,-139 v 139 H 130 v -185 L 310.00001,89.999997 V 394.99999 h 70 z M -120,89.999997 20,189.99999 l -140,110 z"
         style="display:inline;opacity:0.875;mix-blend-mode:normal;fill:none;fill-opacity:1;stroke:#080808;stroke-width:13.2292;stroke-linecap:round;stroke-linejoin:round;stroke-dasharray:none;stroke-opacity:1;filter:url(#filter10)"
         id="path4" /><path
         d="M 380.00001,-44.999999 130,120 V -44.999999 H 60.000001 V 120 L -190,-44.999999 V 394.99999 h 70 l 180.000001,-139 v 139 H 130 v -185 L 310.00001,89.999997 V 394.99999 h 70 z M -120,89.999997 20,189.99999 l -140,110 z"
         style="display:inline;opacity:0.69;fill:#080808;fill-opacity:0.711956;stroke-width:0.266421;filter:url(#filter9)"
         id="path9" /></g></g></svg>
